<?xml version="1.0" encoding="UTF-8" standalone="no"?><!DOCTYPE svg PUBLIC "-//W3C//DTD SVG 1.1//EN" "http://www.w3.org/Graphics/SVG/1.1/DTD/svg11.dtd"><svg width="100%" height="100%" viewBox="0 0 512 512" version="1.1" xmlns="http://www.w3.org/2000/svg" xmlns:xlink="http://www.w3.org/1999/xlink" xml:space="preserve" style="fill-rule:evenodd;clip-rule:evenodd;stroke-linejoin:round;stroke-miterlimit:1.41421;"><g id="Layer1"><path d="M225.021,17.87c19.148,-11.058 42.74,-11.061 61.89,-0.008c42.256,24.388 117.57,67.857 159.826,92.245c19.15,11.053 30.949,31.483 30.953,53.594c0.007,48.789 0.019,135.747 0.026,184.536c0.003,22.111 -11.79,42.544 -30.937,53.602c-42.249,24.401 -117.551,67.891 -159.8,92.291c-19.148,11.058 -42.74,11.062 -61.89,0.009c-42.256,-24.389 -117.57,-67.857 -159.826,-92.246c-19.15,-11.052 -30.949,-31.482 -30.953,-53.593c-0.007,-48.789 -0.019,-135.748 -0.026,-184.537c-0.003,-22.111 11.79,-42.544 30.937,-53.602c42.249,-24.4 117.551,-67.89 159.8,-92.291ZM321.088,208.245l-41.343,0l53.355,134.926l-1.955,7.263c-3.632,10.895 -10.615,18.158 -24.303,18.158c-3.073,0 -6.705,-1.117 -9.219,-1.676l-7.263,31.287c5.587,1.676 11.174,2.794 19.554,2.794c32.684,0 47.49,-17.879 60.619,-52.797l48.048,-139.955l-39.388,0l-16.761,59.502c-3.352,13.129 -6.425,26.258 -9.498,39.388l-1.117,0c-3.632,-13.688 -6.984,-26.817 -10.895,-39.388l-19.834,-59.502ZM179.458,279.2l-1.117,0c-3.632,-11.174 -6.984,-22.906 -10.615,-33.522l-29.332,-81.011l-44.975,0l0,182.136l36.874,0l0,-66.765c0,-17.878 -3.353,-44.416 -5.308,-62.015l1.117,0l14.527,43.299l25.979,69.558l22.627,0l25.98,-69.558l14.805,-43.299l1.118,0c-1.956,17.599 -5.308,44.137 -5.308,62.015l0,66.765l37.433,0l0,-182.136l-44.696,0l-28.773,81.011c-3.631,10.615 -6.704,22.348 -10.336,33.522Z" style="fill:#000;"/></g></svg>