<?xml version="1.0" encoding="UTF-8" standalone="no"?><!DOCTYPE svg PUBLIC "-//W3C//DTD SVG 1.1//EN" "http://www.w3.org/Graphics/SVG/1.1/DTD/svg11.dtd"><svg width="100%" height="100%" viewBox="0 0 512 512" version="1.1" xmlns="http://www.w3.org/2000/svg" xmlns:xlink="http://www.w3.org/1999/xlink" xml:space="preserve" style="fill-rule:evenodd;clip-rule:evenodd;stroke-linejoin:round;stroke-miterlimit:1.41421;"><path d="M167.974,6.994c1.436,-0.127 2.873,-0.235 4.312,-0.317c2.879,-0.164 5.763,-0.234 8.647,-0.209c8.421,0.073 16.834,0.954 25.087,2.635c11.667,2.376 23.001,6.354 33.59,11.8c14.903,7.664 28.314,18.218 39.285,30.885c7.203,8.318 13.344,17.548 18.231,27.406c3.053,6.157 5.618,12.555 7.667,19.114c2.151,6.886 3.734,13.948 4.73,21.093c1.479,10.613 1.66,21.404 0.533,32.06c-0.391,3.699 -0.939,7.382 -1.643,11.034c-0.331,1.718 -0.7,3.427 -1.096,5.13l186.868,155.08c0.773,0.652 1.489,1.367 2.13,2.15c1.463,1.786 2.529,3.889 3.105,6.125c0.218,0.844 0.366,1.707 0.443,2.576c0.032,0.364 0.049,0.729 0.059,1.095c0.107,8.482 0.102,16.966 0.153,25.449c0.053,9.053 0.107,18.107 0.161,27.16c-0.003,0.557 -0.026,1.112 -0.083,1.667c-0.115,1.124 -0.349,2.236 -0.699,3.31c-0.615,1.892 -1.588,3.665 -2.851,5.202c-1.196,1.453 -2.648,2.692 -4.273,3.642c-0.977,0.571 -2.016,1.038 -3.092,1.39c-0.421,0.138 -0.848,0.254 -1.278,0.359l-54.665,12.782c-0.443,0.1 -0.888,0.186 -1.337,0.25c-0.837,0.12 -1.684,0.173 -2.529,0.159c-2.44,-0.042 -4.862,-0.65 -7.031,-1.766c-1.022,-0.525 -1.977,-1.162 -2.866,-1.888l-29.343,-24.353l-27.121,6.843c-0.212,0.052 -0.211,0.051 -0.423,0.1c-0.613,0.131 -1.229,0.234 -1.853,0.297c-1.384,0.139 -2.785,0.096 -4.157,-0.128c-1.444,-0.235 -2.855,-0.669 -4.181,-1.287c-2.053,-0.958 -3.895,-2.355 -5.371,-4.075c-1.404,-1.637 -2.47,-3.559 -3.115,-5.617c-0.394,-1.257 -0.632,-2.562 -0.706,-3.877c-0.031,-0.536 -0.031,-1.072 -0.009,-1.609l0.96,-20.469l-20.063,4.745c-0.21,0.048 -0.209,0.048 -0.42,0.093c-0.61,0.12 -1.222,0.214 -1.841,0.268c-1.375,0.119 -2.765,0.059 -4.125,-0.178c-1.429,-0.25 -2.823,-0.696 -4.132,-1.321c-1.958,-0.935 -3.719,-2.272 -5.146,-3.907c-1.458,-1.671 -2.56,-3.645 -3.218,-5.763c-0.364,-1.174 -0.592,-2.389 -0.678,-3.614c-0.043,-0.609 -0.048,-1.219 -0.024,-1.829l0.914,-19.486l-18.859,4.46c-0.214,0.049 -0.214,0.049 -0.428,0.095c-0.614,0.121 -1.232,0.215 -1.856,0.268c-1.385,0.119 -2.785,0.055 -4.154,-0.189c-1.439,-0.256 -2.842,-0.711 -4.158,-1.348c-1.9,-0.92 -3.611,-2.219 -5.008,-3.801c-1.531,-1.734 -2.676,-3.799 -3.335,-6.016c-0.353,-1.187 -0.567,-2.414 -0.637,-3.65c-0.035,-0.616 -0.031,-1.231 0.003,-1.847l1.726,-27.919l-35.966,-29.848c-0.341,0.151 -0.684,0.3 -1.026,0.449c-2.166,0.928 -4.351,1.808 -6.561,2.623c-4.219,1.556 -8.517,2.894 -12.873,4.01c-12.831,3.285 -26.153,4.621 -39.381,3.951c-9.394,-0.475 -18.736,-1.961 -27.812,-4.432c-8.652,-2.356 -17.058,-5.607 -25.043,-9.688c-15.144,-7.74 -28.757,-18.46 -39.85,-31.352c-4.939,-5.739 -9.376,-11.909 -13.244,-18.419c-4.137,-6.963 -7.621,-14.312 -10.398,-21.92c-4.007,-10.978 -6.538,-22.489 -7.515,-34.135c-0.967,-11.52 -0.415,-23.164 1.652,-34.538c1.258,-6.925 3.075,-13.747 5.432,-20.378c2.35,-6.612 5.235,-13.033 8.619,-19.18c6.697,-12.166 15.342,-23.258 25.489,-32.739c4.579,-4.278 9.465,-8.227 14.611,-11.803c5.274,-3.666 10.821,-6.94 16.578,-9.788c9.225,-4.562 18.988,-8.027 29.021,-10.311c3.452,-0.786 6.936,-1.433 10.44,-1.939c1.816,-0.262 3.637,-0.483 5.462,-0.672c0.521,-0.052 1.043,-0.102 1.565,-0.15ZM347.406,337.306c0.615,-0.031 1.229,-0.035 1.844,0.001c1.294,0.075 2.579,0.309 3.817,0.694c1.688,0.526 3.286,1.334 4.711,2.382c1.434,1.055 2.689,2.35 3.698,3.818c0.951,1.384 1.681,2.918 2.156,4.529c0.347,1.178 0.558,2.397 0.626,3.624c0.03,0.532 0.03,1.065 0.009,1.598l-0.957,20.389l23.971,-6.048c0.213,-0.052 0.213,-0.051 0.427,-0.1c0.387,-0.083 0.775,-0.156 1.167,-0.213c0.851,-0.122 1.713,-0.176 2.573,-0.16c2.485,0.047 4.949,0.682 7.148,1.841c0.966,0.51 1.871,1.12 2.717,1.811l29.377,24.381l49.694,-11.619l-0.142,-24.016l-0.14,-23.426l-190.306,-157.934c-0.638,-0.708 -1.384,-1.331 -1.913,-2.123c-1.069,-1.601 -1.65,-3.478 -1.67,-5.403c-0.01,-0.952 0.233,-1.891 0.382,-2.832c0.027,-0.173 0.096,-0.336 0.144,-0.504c0.046,-0.161 0.09,-0.323 0.136,-0.484c0.089,-0.322 0.177,-0.645 0.265,-0.968c0.43,-1.614 0.83,-3.235 1.191,-4.865c0.717,-3.249 1.289,-6.531 1.713,-9.831c1.307,-10.181 1.2,-20.538 -0.306,-30.691c-1.095,-7.378 -2.928,-14.645 -5.468,-21.657c-2.335,-6.446 -5.267,-12.675 -8.752,-18.579c-3.376,-5.718 -7.269,-11.129 -11.616,-16.148c-4.094,-4.728 -8.588,-9.105 -13.413,-13.083c-4.461,-3.679 -9.204,-7.015 -14.18,-9.961c-5.236,-3.101 -10.729,-5.768 -16.404,-7.965c-10.587,-4.097 -21.799,-6.542 -33.128,-7.25c-12.011,-0.75 -24.134,0.449 -35.764,3.541c-10.649,2.83 -20.869,7.244 -30.218,13.075c-5.264,3.284 -10.25,7.013 -14.889,11.134c-4.508,4.004 -8.687,8.377 -12.494,13.053c-3.645,4.479 -6.947,9.237 -9.858,14.224c-3.065,5.252 -5.695,10.756 -7.855,16.44c-3.911,10.295 -6.265,21.169 -6.984,32.157c-0.787,12.008 0.377,24.135 3.433,35.775c2.855,10.874 7.362,21.308 13.342,30.83c3.302,5.256 7.048,10.232 11.185,14.86c4.057,4.539 8.489,8.741 13.228,12.562c4.894,3.947 10.119,7.484 15.607,10.552c5.636,3.15 11.547,5.804 17.646,7.922c6.471,2.246 13.151,3.888 19.925,4.903c7.537,1.129 15.189,1.482 22.798,1.057c10.417,-0.581 20.749,-2.622 30.601,-6.057c2.988,-1.041 5.931,-2.21 8.819,-3.503c1.533,-0.686 3.048,-1.411 4.55,-2.162l2.713,-0.897c2.503,-0.076 3.241,-0.37 5.619,0.645c0.876,0.374 1.626,0.993 2.438,1.489l42.363,35.156c0.835,0.704 1.602,1.481 2.281,2.337c1.594,2.008 2.69,4.397 3.173,6.915c0.177,0.923 0.272,1.863 0.284,2.803c0.005,0.384 -0.006,0.767 -0.027,1.151l-1.525,24.674l18.785,-4.443c0.211,-0.048 0.211,-0.048 0.422,-0.093c0.609,-0.12 1.221,-0.214 1.84,-0.267c1.374,-0.119 2.763,-0.059 4.121,0.179c1.504,0.263 2.969,0.742 4.338,1.42c1.876,0.929 3.564,2.23 4.941,3.808c1.458,1.671 2.56,3.645 3.218,5.764c0.364,1.173 0.592,2.389 0.678,3.615c0.043,0.609 0.047,1.219 0.023,1.829l-0.914,19.483l20.063,-4.744c0.21,-0.049 0.209,-0.048 0.42,-0.093c0.306,-0.061 0.612,-0.117 0.92,-0.162c0.307,-0.044 0.614,-0.078 0.923,-0.107c0.23,-0.018 0.23,-0.018 0.46,-0.033Z" style="fill:#000;fill-rule:nonzero;"/><path d="M449.201,348.072l-147.167,-122.133c-2.706,-2.245 -7.104,-1.414 -9.818,1.855l-2.651,3.194c-2.713,3.269 -2.719,7.746 -0.014,9.992l147.167,122.132c2.705,2.246 7.105,1.415 9.818,-1.855l2.651,-3.195c2.713,-3.269 2.719,-7.745 0.014,-9.99l0,0Z" style="fill:#000;"/><path d="M139.448,66.666c1.856,-0.156 3.72,-0.196 5.581,-0.102c3.839,0.194 7.648,0.935 11.278,2.2c2.528,0.881 4.968,2.015 7.272,3.379c2.219,1.315 4.312,2.841 6.243,4.55c3.102,2.745 5.779,5.964 7.906,9.518c2.268,3.791 3.905,7.953 4.834,12.271c0.971,4.516 1.168,9.194 0.576,13.775c-0.495,3.836 -1.542,7.598 -3.105,11.136c-1.826,4.138 -4.355,7.959 -7.437,11.269c-3.151,3.384 -6.88,6.22 -10.986,8.346c-4.556,2.358 -9.557,3.835 -14.662,4.34c-5.102,0.505 -10.293,0.038 -15.22,-1.379c-4.52,-1.3 -8.801,-3.397 -12.603,-6.165c-3.658,-2.663 -6.87,-5.934 -9.452,-9.651c-2.162,-3.111 -3.881,-6.526 -5.094,-10.116c-1.479,-4.376 -2.203,-9.003 -2.135,-13.622c0.065,-4.496 0.881,-8.977 2.413,-13.204c1.381,-3.81 3.34,-7.405 5.787,-10.635c3.18,-4.198 7.171,-7.769 11.708,-10.446c3.313,-1.954 6.906,-3.43 10.635,-4.374c1.807,-0.457 3.643,-0.784 5.495,-0.995c0.321,-0.034 0.643,-0.066 0.966,-0.095ZM140.918,86.448c-0.951,0.097 -1.894,0.253 -2.824,0.476c-1.906,0.458 -3.746,1.187 -5.446,2.162c-2.331,1.336 -4.384,3.135 -6.033,5.255c-1.373,1.766 -2.459,3.751 -3.195,5.864c-0.686,1.969 -1.069,4.042 -1.136,6.125c-0.075,2.284 0.228,4.578 0.894,6.764c0.586,1.921 1.451,3.755 2.567,5.426c1.332,1.995 3.017,3.748 4.947,5.172c1.894,1.397 4.023,2.467 6.277,3.146c2.512,0.755 5.165,1.024 7.777,0.796c2.487,-0.216 4.933,-0.88 7.184,-1.96c1.875,-0.899 3.61,-2.085 5.13,-3.504c1.793,-1.676 3.292,-3.671 4.395,-5.865c0.905,-1.802 1.541,-3.737 1.883,-5.724c0.381,-2.212 0.4,-4.484 0.06,-6.702c-0.322,-2.098 -0.966,-4.146 -1.907,-6.049c-1.138,-2.302 -2.712,-4.379 -4.614,-6.105c-1.992,-1.809 -4.328,-3.23 -6.859,-4.147c-1.844,-0.669 -3.783,-1.069 -5.741,-1.191c-0.954,-0.06 -1.91,-0.051 -2.863,0.018c-0.166,0.012 -0.331,0.027 -0.496,0.043Z" style="fill:#000;fill-rule:nonzero;"/><path d="M346.724,439.379l-110.542,-156.061c-2.032,-2.869 -6.496,-3.205 -9.963,-0.75l-3.388,2.4c-3.466,2.455 -4.631,6.778 -2.599,9.647l110.542,156.061c2.032,2.869 6.497,3.205 9.964,0.749l3.387,-2.4c3.466,-2.455 4.631,-6.777 2.599,-9.646l0,0Z" style="fill:#000;"/><path d="M335.385,339.899l61.355,86.62c0.579,0.83 1.086,1.706 1.502,2.628c0.951,2.104 1.436,4.411 1.414,6.72c-0.008,0.872 -0.088,1.743 -0.239,2.603c-0.063,0.36 -0.141,0.717 -0.226,1.073c-2.092,8.221 -4.293,16.414 -6.44,24.621c-2.291,8.759 -4.582,17.518 -6.874,26.276c-0.147,0.538 -0.312,1.068 -0.511,1.589c-0.402,1.056 -0.916,2.069 -1.532,3.017c-1.084,1.668 -2.482,3.129 -4.1,4.286c-1.531,1.095 -3.255,1.915 -5.07,2.412c-1.092,0.299 -2.216,0.481 -3.347,0.543c-0.442,0.024 -0.884,0.026 -1.327,0.016l-56.11,-1.802c-0.454,-0.018 -0.906,-0.05 -1.357,-0.105c-0.839,-0.101 -1.671,-0.269 -2.484,-0.501c-2.346,-0.672 -4.527,-1.885 -6.334,-3.525c-0.851,-0.772 -1.609,-1.634 -2.279,-2.566l-22.04,-31.117l-27.969,-0.41c-0.217,-0.005 -0.217,-0.005 -0.434,-0.013c-0.626,-0.032 -1.248,-0.092 -1.867,-0.193c-1.372,-0.224 -2.714,-0.628 -3.982,-1.199c-1.334,-0.601 -2.584,-1.385 -3.705,-2.326c-1.736,-1.456 -3.154,-3.282 -4.133,-5.325c-0.933,-1.946 -1.465,-4.078 -1.556,-6.233c-0.056,-1.316 0.053,-2.638 0.321,-3.927c0.11,-0.526 0.249,-1.044 0.408,-1.557l6.225,-19.523l-20.607,-0.609c-0.215,-0.008 -0.215,-0.008 -0.43,-0.019c-0.62,-0.041 -1.236,-0.109 -1.847,-0.217c-1.36,-0.241 -2.687,-0.659 -3.938,-1.241c-1.316,-0.611 -2.548,-1.402 -3.65,-2.345c-1.65,-1.41 -3.004,-3.157 -3.959,-5.105c-0.977,-1.992 -1.53,-4.184 -1.617,-6.4c-0.048,-1.228 0.046,-2.461 0.28,-3.667c0.116,-0.599 0.27,-1.189 0.451,-1.772l5.926,-18.586l-19.371,-0.572c-0.22,-0.008 -0.219,-0.009 -0.438,-0.02c-0.625,-0.042 -1.246,-0.11 -1.862,-0.221c-1.369,-0.244 -2.705,-0.668 -3.964,-1.258c-1.324,-0.62 -2.561,-1.423 -3.667,-2.378c-1.597,-1.381 -2.914,-3.078 -3.854,-4.968c-1.03,-2.071 -1.601,-4.362 -1.664,-6.674c-0.034,-1.237 0.077,-2.479 0.329,-3.691c0.126,-0.603 0.289,-1.197 0.481,-1.782l8.893,-26.522l-27.015,-38.139c-0.369,0.057 -0.738,0.113 -1.108,0.168c-2.331,0.336 -4.669,0.62 -7.016,0.835c-4.477,0.411 -8.976,0.592 -13.472,0.542c-13.244,-0.148 -26.458,-2.305 -39.062,-6.376c-8.951,-2.891 -17.589,-6.744 -25.716,-11.48c-7.748,-4.515 -15.026,-9.831 -21.683,-15.839c-12.625,-11.396 -23,-25.274 -30.378,-40.597c-3.285,-6.822 -5.974,-13.931 -8.025,-21.22c-2.194,-7.796 -3.657,-15.796 -4.37,-23.864c-1.03,-11.641 -0.495,-23.415 1.575,-34.917c2.047,-11.378 5.595,-22.482 10.535,-32.934c3.007,-6.363 6.529,-12.482 10.521,-18.278c3.981,-5.778 8.43,-11.233 13.29,-16.295c9.617,-10.018 20.839,-18.495 33.093,-25.026c5.531,-2.948 11.272,-5.497 17.168,-7.62c6.044,-2.175 12.249,-3.902 18.547,-5.163c6.847,-1.37 13.803,-2.188 20.78,-2.45c-5.209,2.226 -10.247,4.85 -15.055,7.849c-5.264,3.284 -10.25,7.013 -14.889,11.134c-3.618,3.214 -7.024,6.665 -10.196,10.32c-1.529,0.681 -3.043,1.397 -4.54,2.147c-5.391,2.701 -10.559,5.843 -15.446,9.375c-4.681,3.382 -9.101,7.124 -13.204,11.188c-4.32,4.279 -8.286,8.915 -11.842,13.846c-6.442,8.932 -11.531,18.826 -15.07,29.254c-3.868,11.395 -5.882,23.41 -5.943,35.444c-0.056,11.243 1.597,22.488 4.909,33.233c1.828,5.932 4.159,11.708 6.957,17.248c2.744,5.435 5.937,10.641 9.526,15.559c3.706,5.079 7.837,9.847 12.345,14.231c4.628,4.502 9.651,8.595 14.994,12.219c5.669,3.845 11.696,7.16 17.977,9.893c6.987,3.042 14.287,5.363 21.747,6.922c10.213,2.135 20.721,2.837 31.126,2.069c3.156,-0.232 6.301,-0.6 9.425,-1.101c1.659,-0.266 3.31,-0.574 4.955,-0.911l2.853,-0.164c2.437,0.575 3.226,0.482 5.26,2.077c0.749,0.588 1.313,1.38 1.97,2.07l31.82,44.922c0.625,0.896 1.164,1.846 1.599,2.848c1.019,2.352 1.46,4.943 1.275,7.5c-0.068,0.938 -0.219,1.87 -0.451,2.782c-0.095,0.372 -0.205,0.739 -0.324,1.104l-7.86,23.439l19.296,0.57c0.216,0.008 0.215,0.009 0.431,0.02c0.619,0.041 1.235,0.109 1.847,0.218c1.357,0.241 2.683,0.658 3.934,1.239c1.385,0.643 2.676,1.486 3.822,2.494c1.572,1.384 2.866,3.077 3.787,4.958c0.976,1.991 1.53,4.184 1.617,6.4c0.048,1.228 -0.046,2.461 -0.281,3.668c-0.116,0.599 -0.27,1.189 -0.451,1.772l-5.925,18.583l20.607,0.61c0.215,0.008 0.215,0.008 0.43,0.019c0.311,0.02 0.621,0.045 0.93,0.082c0.308,0.036 0.614,0.083 0.919,0.135c0.228,0.042 0.227,0.042 0.453,0.087c0.602,0.13 1.197,0.284 1.781,0.478c1.231,0.408 2.411,0.966 3.507,1.659c1.495,0.945 2.83,2.139 3.935,3.52c1.112,1.39 1.989,2.966 2.583,4.645c0.561,1.583 0.869,3.254 0.911,4.932c0.03,1.229 -0.082,2.46 -0.334,3.663c-0.109,0.522 -0.247,1.036 -0.405,1.546l-6.201,19.447l24.719,0.362c0.22,0.005 0.22,0.005 0.439,0.013c0.395,0.021 0.789,0.05 1.182,0.097c0.854,0.102 1.7,0.274 2.527,0.512c2.388,0.688 4.604,1.939 6.428,3.628c0.801,0.742 1.518,1.566 2.156,2.452l22.066,31.154l51.007,1.638l6.079,-23.234l5.928,-22.663l-52.969,-74.781l8.862,-21.802Z" style="fill:#000;"/></svg>