<?xml version="1.0" encoding="UTF-8" standalone="no"?><!DOCTYPE svg PUBLIC "-//W3C//DTD SVG 1.1//EN" "http://www.w3.org/Graphics/SVG/1.1/DTD/svg11.dtd"><svg width="100%" height="100%" viewBox="0 0 512 512" version="1.1" xmlns="http://www.w3.org/2000/svg" xmlns:xlink="http://www.w3.org/1999/xlink" xml:space="preserve" style="fill-rule:evenodd;clip-rule:evenodd;stroke-linejoin:round;stroke-miterlimit:1.41421;"><g id="Layer1"><path d="M256,512.001c-1.652,-0.002 -3.305,-0.016 -4.956,-0.047c-3.011,-0.057 -6.021,-0.167 -9.027,-0.329c-8.897,-0.48 -17.77,-1.421 -26.569,-2.824c-10.729,-1.711 -21.348,-4.109 -31.771,-7.176c-10.765,-3.169 -21.318,-7.053 -31.571,-11.616c-12.73,-5.667 -24.994,-12.38 -36.632,-20.043c-11.991,-7.896 -23.318,-16.8 -33.827,-26.583c-10.685,-9.947 -20.522,-20.802 -29.371,-32.412c-8.73,-11.456 -16.498,-23.645 -23.183,-36.403c-5.664,-10.809 -10.552,-22.024 -14.609,-33.533c-4.029,-11.428 -7.238,-23.145 -9.595,-35.033c-3.263,-16.454 -4.89,-33.228 -4.89,-50.002c0,-11.428 0.753,-22.857 2.267,-34.186c1.725,-12.894 4.436,-25.656 8.109,-38.137c3.755,-12.754 8.514,-25.211 14.215,-37.221c6.518,-13.732 14.266,-26.877 23.113,-39.237c8.948,-12.499 19.019,-24.191 30.048,-34.898c11.589,-11.249 24.235,-21.404 37.723,-30.287c13.156,-8.663 27.112,-16.11 41.637,-22.206c15.985,-6.708 32.655,-11.773 49.669,-15.093c15.934,-3.108 32.16,-4.683 48.392,-4.734c16.252,-0.052 32.508,1.421 48.479,4.433c17.048,3.215 33.761,8.18 49.798,14.794c14.568,6.01 28.573,13.376 41.787,21.962c13.328,8.663 25.848,18.565 37.353,29.533c11.124,10.607 21.296,22.208 30.355,34.624c8.954,12.274 16.818,25.343 23.457,39.008c5.806,11.948 10.676,24.35 14.545,37.058c3.785,12.429 6.613,25.148 8.457,38.009c1.734,12.11 2.598,24.344 2.598,36.578c0,15.71 -1.426,31.418 -4.289,46.866c-2.164,11.677 -5.146,23.201 -8.921,34.461c-3.884,11.584 -8.605,22.887 -14.111,33.794c-6.611,13.095 -14.354,25.618 -23.105,37.391c-8.711,11.716 -18.42,22.69 -28.986,32.765c-10.575,10.082 -22.007,19.264 -34.137,27.409c-11.779,7.908 -24.213,14.838 -37.139,20.685c-10.218,4.623 -20.741,8.57 -31.48,11.804c-10.394,3.13 -20.99,5.592 -31.698,7.368c-8.781,1.457 -17.636,2.453 -26.52,2.988c-3.001,0.181 -6.006,0.31 -9.012,0.386c-1.649,0.042 -3.298,0.065 -4.948,0.079c-0.552,0.003 -1.103,0.004 -1.655,0.005l0,0ZM256,480.835c1.212,-0.002 2.425,-0.009 3.638,-0.029c2.65,-0.042 5.3,-0.13 7.947,-0.264c8.058,-0.409 16.092,-1.248 24.059,-2.518c9.187,-1.465 18.282,-3.503 27.214,-6.102c9.675,-2.816 19.157,-6.288 28.363,-10.386c11.385,-5.067 22.343,-11.088 32.731,-17.973c10.33,-6.847 20.093,-14.546 29.165,-22.991c9.227,-8.59 17.737,-17.951 25.409,-27.955c7.837,-10.22 14.799,-21.109 20.776,-32.517c4.865,-9.282 9.077,-18.906 12.591,-28.778c3.642,-10.232 6.534,-20.729 8.647,-31.383c2.869,-14.459 4.295,-29.198 4.295,-43.939c0,-10.519 -0.724,-21.039 -2.185,-31.457c-1.55,-11.066 -3.93,-22.017 -7.119,-32.728c-3.328,-11.177 -7.536,-22.091 -12.569,-32.61c-5.955,-12.448 -13.064,-24.342 -21.196,-35.49c-7.698,-10.55 -16.311,-20.432 -25.709,-29.501c-10.215,-9.857 -21.358,-18.75 -33.237,-26.522c-11.385,-7.448 -23.446,-13.861 -35.992,-19.126c-14.023,-5.885 -28.648,-10.33 -43.575,-13.242c-14.002,-2.731 -28.26,-4.112 -42.525,-4.158c-14.282,-0.045 -28.567,1.248 -42.604,3.895c-14.957,2.82 -29.619,7.176 -43.689,12.979c-12.582,5.189 -24.686,11.532 -36.119,18.914c-11.927,7.7 -23.123,16.53 -33.398,26.326c-9.779,9.323 -18.721,19.521 -26.684,30.435c-7.864,10.781 -14.772,22.259 -20.604,34.262c-5.195,10.691 -9.536,21.795 -12.963,33.177c-3.22,10.695 -5.634,21.633 -7.219,32.689c-1.526,10.646 -2.283,21.402 -2.283,32.157c0,14.274 1.337,28.546 4.026,42.565c1.961,10.223 4.639,20.31 8.009,30.159c3.543,10.354 7.85,20.447 12.87,30.17c6.116,11.846 13.291,23.143 21.404,33.723c7.536,9.825 15.879,19.03 24.917,27.495c9.044,8.471 18.784,16.199 29.094,23.076c10.176,6.789 20.904,12.747 32.049,17.789c9.175,4.151 18.629,7.681 28.281,10.554c8.909,2.652 17.982,4.746 27.151,6.266c7.712,1.28 15.491,2.155 23.294,2.626c2.64,0.159 5.284,0.272 7.928,0.338c1.451,0.038 2.903,0.057 4.356,0.07c0.485,0.002 0.971,0.003 1.456,0.004l0,0Z" style="fill:#000;fill-rule:nonzero;"/><path d="M199.515,448.74l0,-59.712c0,-8.948 6.15,-16.471 14.45,-18.569c14.952,-6.022 30.375,-10.925 45.535,-16.045c6.884,-2.402 13.768,-4.743 19.886,-8.444c5.569,-3.305 7.635,-9.913 8.934,-15.879c0.383,-2.172 0.658,-4.359 0.841,-6.532c-21.676,-27.658 -36.254,-75.264 -36.254,-114.058c0,-58.467 32.873,-74.743 73.718,-74.743c40.844,0 73.887,16.276 73.887,74.743c0,37.448 -13.463,83.156 -33.961,111.151c0.153,3.182 0.459,6.41 1.071,9.546c1.376,5.935 3.366,12.697 9.025,16.002c6.211,3.701 13.141,6.317 19.948,8.687c9.409,3.162 18.911,6.298 28.304,9.702c-35.715,55.509 -98.048,92.273 -168.899,92.273c-19.601,0 -38.551,-2.814 -56.485,-8.122Z" style="fill:#000;fill-opacity:0.8;"/><path d="M65.897,320.784c1.321,-3.947 4.597,-7.006 8.677,-8.037c9.663,-3.892 19.631,-7.061 29.429,-10.37c4.449,-1.553 8.898,-3.065 12.852,-5.458c3.599,-2.135 4.934,-6.406 5.774,-10.262c0.248,-1.404 0.426,-2.817 0.544,-4.221c-14.01,-17.876 -23.431,-48.644 -23.431,-73.717c0,-37.786 21.246,-48.306 47.644,-48.306c26.397,0 47.753,10.52 47.753,48.306c0,24.204 -8.701,53.745 -21.949,71.838c0.099,2.056 0.297,4.142 0.692,6.169c0.89,3.836 2.175,8.206 5.833,10.342c4.014,2.392 8.493,4.083 12.892,5.615c9.292,3.122 18.723,6.205 27.887,9.883c5.781,1.041 10.174,6.103 10.174,12.182l0,8.307c-2.93,0.994 -5.856,2.001 -8.775,3.028c-3.271,1.151 -6.533,2.328 -9.78,3.543c-1.778,0.665 -3.551,1.343 -5.321,2.031c-0.508,0.199 -1.017,0.398 -1.525,0.598c-0.289,0.115 -0.564,0.22 -0.851,0.335l-0.114,0.035c-0.484,0.153 -0.967,0.308 -1.446,0.473c-0.796,0.274 -1.585,0.569 -2.365,0.884c-2.929,1.183 -5.741,2.653 -8.385,4.381c-4.807,3.143 -9.047,7.141 -12.468,11.755c-3.274,4.417 -5.79,9.388 -7.404,14.643c-0.957,3.114 -1.599,6.325 -1.912,9.567c-0.101,1.04 -0.168,2.083 -0.202,3.126c-0.016,0.499 -0.022,0.997 -0.025,1.495l-0.036,48.594c-48.703,-23.102 -86.646,-65.225 -104.162,-116.759Z" style="fill:#000;fill-opacity:0.8;"/></g></svg>