<?xml version="1.0" encoding="UTF-8" standalone="no"?><!DOCTYPE svg PUBLIC "-//W3C//DTD SVG 1.1//EN" "http://www.w3.org/Graphics/SVG/1.1/DTD/svg11.dtd"><svg width="100%" height="100%" viewBox="0 0 512 512" version="1.1" xmlns="http://www.w3.org/2000/svg" xmlns:xlink="http://www.w3.org/1999/xlink" xml:space="preserve" style="fill-rule:evenodd;clip-rule:evenodd;stroke-linejoin:round;stroke-miterlimit:1.41421;"><g id="Layer1"><path d="M256,512.001c-1.652,-0.002 -3.305,-0.016 -4.956,-0.047c-3.011,-0.057 -6.021,-0.167 -9.027,-0.329c-8.897,-0.48 -17.77,-1.421 -26.569,-2.824c-10.729,-1.711 -21.348,-4.109 -31.771,-7.176c-10.765,-3.169 -21.318,-7.053 -31.571,-11.616c-12.73,-5.667 -24.994,-12.38 -36.632,-20.043c-11.991,-7.896 -23.318,-16.8 -33.827,-26.583c-10.685,-9.947 -20.522,-20.802 -29.371,-32.412c-8.73,-11.456 -16.498,-23.645 -23.183,-36.403c-5.664,-10.809 -10.552,-22.024 -14.609,-33.533c-4.029,-11.428 -7.238,-23.145 -9.595,-35.033c-3.263,-16.454 -4.89,-33.228 -4.89,-50.002c0,-11.428 0.753,-22.857 2.267,-34.186c1.725,-12.894 4.436,-25.656 8.109,-38.137c3.755,-12.754 8.514,-25.211 14.215,-37.221c6.518,-13.732 14.266,-26.877 23.113,-39.237c8.948,-12.499 19.019,-24.191 30.048,-34.898c11.589,-11.249 24.235,-21.404 37.723,-30.287c13.156,-8.663 27.112,-16.11 41.637,-22.206c15.985,-6.708 32.655,-11.773 49.669,-15.093c15.934,-3.108 32.16,-4.683 48.392,-4.734c16.252,-0.052 32.508,1.421 48.479,4.433c17.048,3.215 33.761,8.18 49.798,14.794c14.568,6.01 28.573,13.376 41.787,21.962c13.328,8.663 25.848,18.565 37.353,29.533c11.124,10.607 21.296,22.208 30.355,34.624c8.954,12.274 16.818,25.343 23.457,39.008c5.806,11.948 10.676,24.35 14.545,37.058c3.785,12.429 6.613,25.148 8.457,38.009c1.734,12.11 2.598,24.344 2.598,36.578c0,15.71 -1.426,31.418 -4.289,46.866c-2.164,11.677 -5.146,23.201 -8.921,34.461c-3.884,11.584 -8.605,22.887 -14.111,33.794c-6.611,13.095 -14.354,25.618 -23.105,37.391c-8.711,11.716 -18.42,22.69 -28.986,32.765c-10.575,10.082 -22.007,19.264 -34.137,27.409c-11.779,7.908 -24.213,14.838 -37.139,20.685c-10.218,4.623 -20.741,8.57 -31.48,11.804c-10.394,3.13 -20.99,5.592 -31.698,7.368c-8.781,1.457 -17.636,2.453 -26.52,2.988c-3.001,0.181 -6.006,0.31 -9.012,0.386c-1.649,0.042 -3.298,0.065 -4.948,0.079c-0.552,0.003 -1.103,0.004 -1.655,0.005l0,0ZM256,480.835c1.212,-0.002 2.425,-0.009 3.638,-0.029c2.65,-0.042 5.3,-0.13 7.947,-0.264c8.058,-0.409 16.092,-1.248 24.059,-2.518c9.187,-1.465 18.282,-3.503 27.214,-6.102c9.675,-2.816 19.157,-6.288 28.363,-10.386c11.385,-5.067 22.343,-11.088 32.731,-17.973c10.33,-6.847 20.093,-14.546 29.165,-22.991c9.227,-8.59 17.737,-17.951 25.409,-27.955c7.837,-10.22 14.799,-21.109 20.776,-32.517c4.865,-9.282 9.077,-18.906 12.591,-28.778c3.642,-10.232 6.534,-20.729 8.647,-31.383c2.869,-14.459 4.295,-29.198 4.295,-43.939c0,-10.519 -0.724,-21.039 -2.185,-31.457c-1.55,-11.066 -3.93,-22.017 -7.119,-32.728c-3.328,-11.177 -7.536,-22.091 -12.569,-32.61c-5.955,-12.448 -13.064,-24.342 -21.196,-35.49c-7.698,-10.55 -16.311,-20.432 -25.709,-29.501c-10.215,-9.857 -21.358,-18.75 -33.237,-26.522c-11.385,-7.448 -23.446,-13.861 -35.992,-19.126c-14.023,-5.885 -28.648,-10.33 -43.575,-13.242c-14.002,-2.731 -28.26,-4.112 -42.525,-4.158c-14.282,-0.045 -28.567,1.248 -42.604,3.895c-14.957,2.82 -29.619,7.176 -43.689,12.979c-12.582,5.189 -24.686,11.532 -36.119,18.914c-11.927,7.7 -23.123,16.53 -33.398,26.326c-9.779,9.323 -18.721,19.521 -26.684,30.435c-7.864,10.781 -14.772,22.259 -20.604,34.262c-5.195,10.691 -9.536,21.795 -12.963,33.177c-3.22,10.695 -5.634,21.633 -7.219,32.689c-1.526,10.646 -2.283,21.402 -2.283,32.157c0,14.274 1.337,28.546 4.026,42.565c1.961,10.223 4.639,20.31 8.009,30.159c3.543,10.354 7.85,20.447 12.87,30.17c6.116,11.846 13.291,23.143 21.404,33.723c7.536,9.825 15.879,19.03 24.917,27.495c9.044,8.471 18.784,16.199 29.094,23.076c10.176,6.789 20.904,12.747 32.049,17.789c9.175,4.151 18.629,7.681 28.281,10.554c8.909,2.652 17.982,4.746 27.151,6.266c7.712,1.28 15.491,2.155 23.294,2.626c2.64,0.159 5.284,0.272 7.928,0.338c1.451,0.038 2.903,0.057 4.356,0.07c0.485,0.002 0.971,0.003 1.456,0.004l0,0Z" style="fill:#000;fill-rule:nonzero;"/><path d="M79.947,352.715c-15.809,-28.696 -24.806,-61.662 -24.806,-96.713c0,-110.857 90.002,-200.859 200.859,-200.859c110.857,0 200.859,90.002 200.859,200.859c0,42.412 -13.173,81.772 -35.648,114.207c-11.523,-4.419 -23.282,-8.276 -34.889,-12.177c-6.293,-2.192 -12.7,-4.61 -18.443,-8.032c-5.233,-3.055 -7.072,-9.308 -8.345,-14.795c-0.565,-2.9 -0.849,-5.884 -0.99,-8.826c18.953,-25.884 31.4,-68.146 31.4,-102.771c0,-54.057 -30.552,-69.106 -68.316,-69.106c-37.764,0 -68.159,15.049 -68.159,69.106c0,35.87 13.478,79.886 33.52,105.459c-0.169,2.008 -0.423,4.03 -0.777,6.039c-1.202,5.516 -3.112,11.626 -8.26,14.681c-5.658,3.423 -12.023,5.587 -18.387,7.808c-14.017,4.733 -28.277,9.267 -42.102,14.835c-7.674,1.94 -13.36,8.896 -13.36,17.169l0,60.482c-9.367,-2.501 -18.464,-5.664 -27.24,-9.434c0.006,-17.041 0.038,-34.081 0.038,-51.121c0.003,-0.461 0.009,-0.922 0.023,-1.382c0.032,-0.965 0.094,-1.929 0.187,-2.891c0.29,-2.998 0.883,-5.966 1.768,-8.845c1.493,-4.86 3.819,-9.456 6.846,-13.539c3.163,-4.266 7.083,-7.963 11.528,-10.869c2.444,-1.598 5.044,-2.957 7.752,-4.05c0.722,-0.292 1.451,-0.565 2.187,-0.818c0.443,-0.153 0.889,-0.296 1.337,-0.437l0.106,-0.032c0.265,-0.107 0.519,-0.204 0.786,-0.31c0.47,-0.185 0.94,-0.37 1.41,-0.554c1.636,-0.635 3.276,-1.262 4.92,-1.877c3.002,-1.124 6.018,-2.212 9.042,-3.276c2.699,-0.95 5.405,-1.88 8.114,-2.8l0,-7.68c0,-5.621 -4.061,-10.301 -9.407,-11.264c-8.473,-3.4 -17.193,-6.251 -25.784,-9.138c-4.067,-1.416 -8.208,-2.98 -11.92,-5.191c-3.382,-1.975 -4.571,-6.016 -5.393,-9.562c-0.366,-1.874 -0.549,-3.803 -0.64,-5.704c12.249,-16.729 20.294,-44.043 20.294,-66.421c0,-34.938 -19.746,-44.664 -44.153,-44.664c-24.407,0 -44.051,9.726 -44.051,44.664c0,23.182 8.711,51.63 21.664,68.158c-0.109,1.298 -0.274,2.605 -0.502,3.903c-0.777,3.565 -2.011,7.514 -5.339,9.488c-3.656,2.212 -7.77,3.611 -11.883,5.047c-9.059,3.059 -18.276,5.989 -27.211,9.587c-4.96,1.254 -8.635,5.75 -8.635,11.097l0,22.549ZM208.635,346.663l-0.627,0.251c0.215,-0.085 0.43,-0.17 0.644,-0.257c0.006,-0.002 -0.011,0.004 -0.017,0.006ZM208.982,346.527l-0.267,0.106l-0.063,0.024l0.327,-0.099l0.452,-0.132c0.453,-0.127 0.453,-0.127 0.907,-0.25c-0.452,0.117 -0.904,0.234 -1.356,0.351Z" style="fill:#000;fill-opacity:0.8;"/></g></svg>