<?xml version="1.0" encoding="UTF-8" standalone="no"?><!DOCTYPE svg PUBLIC "-//W3C//DTD SVG 1.1//EN" "http://www.w3.org/Graphics/SVG/1.1/DTD/svg11.dtd"><svg width="100%" height="100%" viewBox="0 0 512 512" version="1.1" xmlns="http://www.w3.org/2000/svg" xmlns:xlink="http://www.w3.org/1999/xlink" xml:space="preserve" style="fill-rule:evenodd;clip-rule:evenodd;stroke-linejoin:round;stroke-miterlimit:1.41421;"><g id="Layer1"><path d="M415.311,415.311l-318.622,0l0,-318.622l318.622,0l0,318.622Zm87.62,-207.104c4.401,0 7.966,-3.565 7.966,-7.966c0,-4.401 -3.565,-7.965 -7.966,-7.965l-55.758,0l0,-39.828l55.758,0c4.401,0 7.966,-3.565 7.966,-7.965c0,-4.401 -3.565,-7.966 -7.966,-7.966l-55.758,0l0,-39.828c0,-17.603 -14.258,-31.862 -31.862,-31.862l-39.828,0l0,-55.758c0,-4.401 -3.565,-7.966 -7.966,-7.966c-4.4,0 -7.965,3.565 -7.965,7.966l0,55.758l-39.828,0l0,-55.758c0,-4.401 -3.564,-7.966 -7.965,-7.966c-4.401,0 -7.966,3.565 -7.966,7.966l0,55.758l-39.827,0l0,-55.758c0,-4.401 -3.565,-7.966 -7.966,-7.966c-4.401,0 -7.966,3.565 -7.966,7.966l0,55.758l-39.827,0l0,-55.758c0,-4.401 -3.565,-7.966 -7.966,-7.966c-4.401,0 -7.965,3.565 -7.965,7.966l0,55.758l-39.828,0l0,-55.758c0,-4.401 -3.565,-7.966 -7.965,-7.966c-4.401,0 -7.966,3.565 -7.966,7.966l0,55.758l-39.828,0c-17.604,0 -31.862,14.259 -31.862,31.862l0,39.828l-55.758,0c-4.401,0 -7.966,3.565 -7.966,7.966c0,4.4 3.565,7.965 7.966,7.965l55.758,0l0,39.828l-55.758,0c-4.401,0 -7.966,3.564 -7.966,7.965c0,4.401 3.565,7.966 7.966,7.966l55.758,0l0,39.827l-55.758,0c-4.401,0 -7.966,3.565 -7.966,7.966c0,4.401 3.565,7.966 7.966,7.966l55.758,0l0,39.827l-55.758,0c-4.401,0 -7.966,3.565 -7.966,7.966c0,4.401 3.565,7.965 7.966,7.965l55.758,0l0,39.828l-55.758,0c-4.401,0 -7.966,3.565 -7.966,7.965c0,4.401 3.565,7.966 7.966,7.966l55.758,0l0,39.828c0,17.603 14.258,31.862 31.862,31.862l39.828,0l0,55.758c0,4.401 3.565,7.966 7.966,7.966c4.4,0 7.965,-3.565 7.965,-7.966l0,-55.758l39.828,0l0,55.758c0,4.401 3.564,7.966 7.965,7.966c4.401,0 7.966,-3.565 7.966,-7.966l0,-55.758l39.827,0l0,55.758c0,4.401 3.565,7.966 7.966,7.966c4.401,0 7.966,-3.565 7.966,-7.966l0,-55.758l39.827,0l0,55.758c0,4.401 3.565,7.966 7.966,7.966c4.401,0 7.965,-3.565 7.965,-7.966l0,-55.758l39.828,0l0,55.758c0,4.401 3.565,7.966 7.965,7.966c4.401,0 7.966,-3.565 7.966,-7.966l0,-55.758l39.828,0c17.604,0 31.862,-14.259 31.862,-31.862l0,-39.828l55.758,0c4.401,0 7.966,-3.565 7.966,-7.966c0,-4.4 -3.565,-7.965 -7.966,-7.965l-55.758,0l0,-39.828l55.758,0c4.401,0 7.966,-3.564 7.966,-7.965c0,-4.401 -3.565,-7.966 -7.966,-7.966l-55.758,0l0,-39.827l55.758,0c4.401,0 7.966,-3.565 7.966,-7.966c0,-4.401 -3.565,-7.966 -7.966,-7.966l-55.758,0l0,-39.827l55.758,0Zm-358.448,-63.724l223.034,0l0,223.034l-223.034,0l0,-223.034Zm0,238.966l223.034,0c8.802,0 15.931,-7.13 15.931,-15.932l0,-223.034c0,-8.802 -7.129,-15.932 -15.931,-15.932l-223.034,0c-8.802,0 -15.932,7.13 -15.932,15.932l0,223.034c0,8.802 7.13,15.932 15.932,15.932Z"/></g></svg>
